<?xml version="1.0" encoding="utf-8"?>
<!-- Generator: Adobe Illustrator 24.0.2, SVG Export Plug-In . SVG Version: 6.00 Build 0)  -->
<svg version="1.1" id="Layer_1" xmlns="http://www.w3.org/2000/svg" xmlns:xlink="http://www.w3.org/1999/xlink" x="0px" y="0px"
	 viewBox="0 0 378.5 378.4" style="enable-background:new 0 0 378.5 378.4;" xml:space="preserve">
<style type="text/css">
	.st0{fill:none;stroke:#000000;stroke-width:1.2762;stroke-linecap:round;stroke-linejoin:round;}
</style>
<path class="st0" d="M39.7,192.9c1,27.5-2,56.8,1,83.5c14.2,8.2,28.5,16.4,42.7,24.6c0.9,0.8,1.6,0.5,1.3-0.8
	c-0.6-11.1,1.3-22.9-0.7-33.6C70.5,249.6,61.6,228,63.2,206c1-32,32.1-45.9,58.3-29.1c37.5,21.1,66.3,89.1,22.6,116.6
	c0,13.7,0,27.4,0,41.1c0,1.1,0.3,1.7,1.3,2.3c11.5,6.6,23,13.4,34.6,19.9c2.5,1.4,3.4,2.9,3.3,5.7c-1,3,1.8,15.6-1.7,15.2
	c-15.4-0.5-30.7-3.1-45.5-7.4c-37-10.8-70.3-33.2-94.3-63.3C-4.4,250.6-12.5,167.4,21.5,103c1.3-2.6,1.3-2.6,3.8-1.2
	c4.3,2.5,8.6,5,13,7.4C42.2,135.7,38.3,165.4,39.7,192.9"/>
<path class="st0" d="M338.8,110.2c3-1.4,16.2-11.1,17.3-8.7c7.1,13.7,12.8,28.3,16.4,43.4c15.6,62.5-3.6,132-49.5,177.3
	c-33.1,33.6-79.1,53.9-126.2,55.5c-3.1,0.2-0.3-15.2-1.3-18.1c0-1,0.4-1.4,1.1-1.7c8.1-4.7,16.2-9.4,24.3-14
	c39.1-22.5,78.1-45.2,117.3-67.6c1.1,0,0.8-0.8,0.8-1.4c-0.3-18.5,0.6-37.9-0.3-55.9c-8,4.6-16,9.1-23.9,13.7
	c-6.2,13.7-11.8,27.9-22.9,39c-32.4,37.1-83.8,27.2-76.7-27.9c3.6-38,49.5-95.4,89.6-66.4c1.3,0.6,2.2,3.5,3.8,2.4
	c5.7-3.2,11.4-6.5,17-9.7c3-2.5,13.3-5.6,13.4-8.9C338.8,144.2,339.4,127.1,338.8,110.2"/>
<path class="st0" d="M139.7,45.4c7.7,3.9,14.6,9.3,22.5,12.2c20.2-4.8,41.9-3.4,60.9,5.3c57.1,27.9,20.9,79.3-29.7,81.4
	c-33.9,3.6-82-14.3-75.2-54.7c-8.7-5-17.5-10.1-26.2-15.2c-0.9-0.6-1.6-0.5-2.5,0C74.6,81.9,60.2,93.6,45,99
	c-2.7-2.5-16.3-7.5-15.2-10.3c5.1-8,10.8-15.7,17-22.9C95.5,8.3,179.6-14.4,250.6,11c40.3,13.8,75.3,41.7,98,77.7
	c2.3,2.6-13.2,8.1-15.1,10.3c-0.8,0.5-1.5,0.5-2.3,0c-12.8-7.4-25.5-14.8-38.3-22.2c-34.1-19.6-68.2-39.3-102.2-59
	c-1-0.6-1.9-0.7-3,0C171.7,27,155.8,36.3,139.7,45.4"/>
</svg>
